<svg width="16" height="16" viewBox="0 0 16 16" fill="none" xmlns="http://www.w3.org/2000/svg">
<g clip-path="url(#clip0)">
<path d="M7.21381 10.8835H7.74095V11.4106H7.21381V10.8835Z" fill="#FFE351"/>
<path d="M8.26807 10.8835H8.79521V11.4106H8.26807V10.8835Z" fill="#FFE351"/>
<path d="M7.13664 7.79779L7.6637 8.32493L7.29099 8.69764L6.76385 8.1705L7.13664 7.79779Z" fill="#FFE351"/>
<path d="M8.71793 8.69779L8.34521 8.32508L8.87235 7.79794L9.24507 8.17066L8.71793 8.69779Z" fill="#FFE351"/>
<path d="M7.17871 5.62449C7.16148 5.62648 7.14424 5.62867 7.12707 5.63121C6.86649 5.1231 6.53779 4.82495 6.39442 4.7109C5.77335 4.18624 5.11575 4.05948 4.31972 4.03085L3.76367 4.01087L4.1004 4.45375C4.73624 5.29009 5.51009 5.4715 5.54442 7.19347H4.5781V7.45708C4.5781 7.96987 4.78671 8.43816 5.12969 8.77489H4.84171V9.03849C4.84171 9.8692 5.38883 10.5835 6.169 10.8095C6.26348 11.7478 7.05058 12.4824 8.00447 12.4824C8.95843 12.4824 9.74553 11.7478 9.83995 10.8096C10.6202 10.5835 11.1673 9.86927 11.1673 9.03849V8.77489H10.8793C11.2223 8.43816 11.4308 7.96987 11.4308 7.45708V7.19347H10.4603C10.4946 5.47136 11.2685 5.29002 11.9042 4.45375L12.241 4.01087L11.685 4.03085C10.8889 4.05948 10.2313 4.18624 9.61026 4.7109C9.46696 4.82489 9.1384 5.12289 8.87789 5.6306C8.86209 5.62833 8.84616 5.62634 8.83023 5.62449L8.00447 3.48242L7.17871 5.62449ZM8.26052 5.61213H7.74849L8.00447 4.94793L8.26052 5.61213ZM4.96146 4.61869C5.36727 4.68865 5.71931 4.82976 6.05694 5.11589L6.0638 5.12145C6.169 5.20467 6.4061 5.41808 6.61175 5.78502C6.36696 5.89949 6.14792 6.0682 5.97069 6.28353C5.917 6.04121 5.84236 5.82169 5.74547 5.62325C5.53907 5.20028 5.27313 4.92932 4.96146 4.61869ZM5.56818 7.72061C5.57718 7.78207 5.58905 7.84345 5.60437 7.90457L5.78042 8.60893C5.4474 8.42381 5.20803 8.1004 5.1314 7.72061H5.56818ZM5.39501 9.30203H5.95373L6.15952 10.1252V10.2472C5.76676 10.077 5.48022 9.72445 5.39501 9.30203ZM9.32235 10.6199C9.32235 11.3562 8.73115 11.9553 8.00447 11.9553C7.27786 11.9553 6.68666 11.3562 6.68666 10.6199V10.0603L6.11571 7.77671C5.90793 6.94546 6.53601 6.13927 7.39425 6.13927H8.61476C9.47156 6.13927 10.1014 6.94408 9.89323 7.77671L9.32235 10.0603V10.6199ZM9.84949 10.2472V10.1252L10.0553 9.30189H10.6139C10.5288 9.72425 10.2422 10.077 9.84949 10.2472ZM10.2285 8.60893L10.4046 7.90436C10.4199 7.84325 10.4318 7.78193 10.4408 7.72048H10.8775C10.8009 8.10026 10.5615 8.42381 10.2285 8.60893ZM9.94089 5.12145L9.94768 5.11589C10.2854 4.82976 10.6374 4.68865 11.0432 4.61869C10.7242 4.93564 10.4629 5.20584 10.2592 5.62325C10.1629 5.82059 10.0885 6.03874 10.035 6.27934C9.85746 6.06497 9.63842 5.89722 9.39383 5.78344C9.59921 5.41746 9.8359 5.2046 9.94089 5.12145Z" fill="#FFE351"/>
</g>
<circle cx="8" cy="8" r="6.75" stroke="#FFE351" stroke-width="1.5"/>
<defs>
<clipPath id="clip0">
<rect width="9" height="9" fill="white" transform="translate(3.5 3.5)"/>
</clipPath>
</defs>
</svg>
