<svg id="Capa_1" enable-background="new 0 0 512 512" height="512" viewBox="0 0 512 512" width="512" xmlns="http://www.w3.org/2000/svg"><g><path d="m497 136.005h-171.637l96.675-96.675c5.858-5.857 5.858-15.355 0-21.213-5.857-5.857-15.355-5.857-21.213 0l-116.398 116.398c-.472.472-.891.974-1.287 1.489h-54.077l-117.887-117.887c-5.857-5.859-15.355-5.857-21.213 0s-5.858 15.355 0 21.213l96.674 96.675h-171.637c-8.284 0-15 6.716-15 15v332.272c0 8.284 6.716 15 15 15h482c8.284 0 15-6.716 15-15v-332.272c0-8.285-6.716-15-15-15zm-15 332.272h-452v-302.272h186.637l26.222 26.223c2.929 2.93 6.768 4.394 10.606 4.394s7.678-1.465 10.606-4.394c5.858-5.857 5.858-15.355 0-21.213l-5.01-5.01h222.939z"/><path d="m215.924 328.817c10.281-13.247 16.424-29.857 16.424-47.885 0-43.157-35.11-78.268-78.267-78.268s-78.268 35.11-78.268 78.268c0 18.03 6.145 34.643 16.428 47.891-26.368 19.131-42.291 49.834-42.291 82.934v4.861c0 8.284 6.716 15 15 15h178.262c8.284 0 15-6.716 15-15v-4.861c0-33.132-15.913-63.814-42.288-82.94zm-61.843-96.153c26.614 0 48.267 21.652 48.267 48.268 0 26.614-21.652 48.267-48.267 48.267s-48.268-21.652-48.268-48.267c0-26.616 21.653-48.268 48.268-48.268zm-73.421 168.953c3.07-21.788 15.928-41.159 35.187-52.43 11.315 6.363 24.353 10.011 38.234 10.011 13.879 0 26.916-3.647 38.231-10.01 19.267 11.273 32.124 30.626 35.191 52.429z"/><path d="m299.367 262.411h133.319c8.284 0 15-6.716 15-15s-6.716-15-15-15h-133.319c-8.284 0-15 6.716-15 15s6.716 15 15 15z"/><path d="m299.367 323.044h133.319c8.284 0 15-6.716 15-15s-6.716-15-15-15h-133.319c-8.284 0-15 6.716-15 15s6.716 15 15 15z"/><path d="m432.687 401.617h-75.641c-8.284 0-15 6.716-15 15s6.716 15 15 15h75.641c8.284 0 15-6.716 15-15s-6.716-15-15-15z"/></g></svg>